<svg version="1.1" xmlns="http://www.w3.org/2000/svg" viewBox="0 0 2026.6811031536893 1077.256479673123" width="4053.3622063073785" height="2154.512959346246">
  <!-- svg-source:excalidraw -->
  
  <defs>
    <style class="style-fonts">
      @font-face {
        font-family: "Virgil";
        src: url("https://excalidraw.com/Virgil.woff2");
      }
      @font-face {
        font-family: "Cascadia";
        src: url("https://excalidraw.com/Cascadia.woff2");
      }
      @font-face {
        font-family: "Assistant";
        src: url("https://excalidraw.com/Assistant-Regular.woff2");
      }
    </style>
    
  </defs>
  <rect x="0" y="0" width="2026.6811031536893" height="1077.256479673123" fill="#ffffff"></rect><g transform="translate(772.4249872511525 10) rotate(0 169.28993225097656 22.5)"><text x="0" y="0" font-family="Virgil, Segoe UI Emoji" font-size="36px" fill="#1e1e1e" text-anchor="start" style="white-space: pre;" direction="ltr" dominant-baseline="text-before-edge">Paper Recommender</text></g><g stroke-linecap="round" transform="translate(10 738.0888462141163) rotate(0 269.19689741484564 126.32920893644416)"><path d="M32 0 C133.21 -0.23, 233.71 0.12, 506.39 0 M32 0 C215.57 0.64, 399.39 0.05, 506.39 0 M506.39 0 C526.49 -1.63, 540.26 11.68, 538.39 32 M506.39 0 C525.46 0.88, 537.37 8.72, 538.39 32 M538.39 32 C536 82.47, 537.41 131.55, 538.39 220.66 M538.39 32 C540.68 104.76, 540.64 175.37, 538.39 220.66 M538.39 220.66 C536.49 240.17, 525.78 254.07, 506.39 252.66 M538.39 220.66 C537.67 242.03, 528.33 253.88, 506.39 252.66 M506.39 252.66 C379.14 252.67, 252.56 252.51, 32 252.66 M506.39 252.66 C406.04 254.65, 305.8 254.66, 32 252.66 M32 252.66 C9.46 254.55, -0.84 242.25, 0 220.66 M32 252.66 C10.17 250.66, 1.68 240.69, 0 220.66 M0 220.66 C2.53 173.98, 0.91 132.08, 0 32 M0 220.66 C-1.14 179.18, -0.57 138.6, 0 32 M0 32 C-0.13 11.61, 9.49 -0.16, 32 0 M0 32 C-1.16 8.84, 11.99 1.42, 32 0" stroke="#1e1e1e" stroke-width="2" fill="none"></path></g><g transform="translate(201.30925279993153 764.6656965294449) rotate(0 43.217979431152344 22.5)"><text x="0" y="0" font-family="Virgil, Segoe UI Emoji" font-size="36px" fill="#1e1e1e" text-anchor="start" style="white-space: pre;" direction="ltr" dominant-baseline="text-before-edge">arxiv</text></g><g stroke-linecap="round" transform="translate(1442.010083243565 166.23827960435335) rotate(0 287.3355099550621 103.56989421525569)"><path d="M32 0 C212.62 0.51, 393.8 1.26, 542.67 0 M32 0 C190.18 -0.79, 348.05 -0.4, 542.67 0 M542.67 0 C562.63 0.53, 573.24 10.23, 574.67 32 M542.67 0 C562.04 0.87, 573.71 9.78, 574.67 32 M574.67 32 C574.39 77.65, 574.3 120.12, 574.67 175.14 M574.67 32 C575.17 81.69, 576.79 132.73, 574.67 175.14 M574.67 175.14 C572.77 194.95, 565.45 207.84, 542.67 207.14 M574.67 175.14 C575.48 196.85, 565.62 205.69, 542.67 207.14 M542.67 207.14 C353.52 207.83, 164.88 208.42, 32 207.14 M542.67 207.14 C367.03 207.96, 191.92 208.29, 32 207.14 M32 207.14 C10.55 207.94, 0.23 194.83, 0 175.14 M32 207.14 C12.32 209.31, -0.71 196.36, 0 175.14 M0 175.14 C-1.67 142.46, -1.35 104.66, 0 32 M0 175.14 C-0.32 125.92, -0.94 76.2, 0 32 M0 32 C-1.08 12.01, 11.73 -0.1, 32 0 M0 32 C-0.15 12.17, 12.7 -0.02, 32 0" stroke="#1e1e1e" stroke-width="2" fill="none"></path></g><g transform="translate(1599.8290000126594 197.62468159608534) rotate(0 113.74197387695312 22.5)"><text x="0" y="0" font-family="Virgil, Segoe UI Emoji" font-size="36px" fill="#1e1e1e" text-anchor="start" style="white-space: pre;" direction="ltr" dominant-baseline="text-before-edge">Vector Store</text></g><g transform="translate(1485.7798304515823 273.8851898470083) rotate(0 251.13978576660156 37.5)"><text x="0" y="0" font-family="Virgil, Segoe UI Emoji" font-size="20px" fill="#1e1e1e" text-anchor="start" style="white-space: pre;" direction="ltr" dominant-baseline="text-before-edge">fill this with 100 abstracts that we pre-download</text><text x="0" y="25" font-family="Virgil, Segoe UI Emoji" font-size="20px" fill="#1e1e1e" text-anchor="start" style="white-space: pre;" direction="ltr" dominant-baseline="text-before-edge">i think we also need some kind of link to the paper</text><text x="0" y="50" font-family="Virgil, Segoe UI Emoji" font-size="20px" fill="#1e1e1e" text-anchor="start" style="white-space: pre;" direction="ltr" dominant-baseline="text-before-edge"></text></g><g transform="translate(45.8264841175901 817.0207268901532) rotate(0 212.81985473632812 12.5)"><text x="0" y="0" font-family="Virgil, Segoe UI Emoji" font-size="20px" fill="#1e1e1e" text-anchor="start" style="white-space: pre;" direction="ltr" dominant-baseline="text-before-edge">actually has the full papers that we want</text></g><g stroke-linecap="round" transform="translate(856.8826236459208 953.1583673548722) rotate(0 61.89184764074889 57.04905615912543)"><path d="M28.52 0 C50.34 0.51, 73.81 -0.32, 95.26 0 M28.52 0 C44 -0.13, 59.83 -0.45, 95.26 0 M95.26 0 C114.12 -1.04, 123.25 8.22, 123.78 28.52 M95.26 0 C115.46 -0.52, 124.08 10.48, 123.78 28.52 M123.78 28.52 C125.51 41.55, 122.82 53.82, 123.78 85.57 M123.78 28.52 C123.84 48.87, 123.67 70, 123.78 85.57 M123.78 85.57 C124.15 103.7, 114.2 112.82, 95.26 114.1 M123.78 85.57 C125.16 105.51, 115.37 114.91, 95.26 114.1 M95.26 114.1 C74.21 116.39, 52.8 116.1, 28.52 114.1 M95.26 114.1 C80.41 114.07, 64.59 113.62, 28.52 114.1 M28.52 114.1 C10.39 114.82, 1.71 103.89, 0 85.57 M28.52 114.1 C9.06 112.34, 1.4 106.63, 0 85.57 M0 85.57 C-2.13 62.97, 0.37 40.18, 0 28.52 M0 85.57 C-0.85 69.35, 0.83 54.96, 0 28.52 M0 28.52 C-0.01 11.34, 11.18 -1.03, 28.52 0 M0 28.52 C-1.91 9.11, 11 2.03, 28.52 0" stroke="#1e1e1e" stroke-width="1" fill="none"></path></g><g transform="translate(889.7644920386228 985.2074235139977) rotate(0 29.009979248046875 24.999999999999943)"><text x="29.009979248046875" y="0" font-family="Virgil, Segoe UI Emoji" font-size="20px" fill="#1e1e1e" text-anchor="middle" style="white-space: pre;" direction="ltr" dominant-baseline="text-before-edge">arxiv </text><text x="29.009979248046875" y="25" font-family="Virgil, Segoe UI Emoji" font-size="20px" fill="#1e1e1e" text-anchor="middle" style="white-space: pre;" direction="ltr" dominant-baseline="text-before-edge">api</text></g><g mask="url(#mask-BJS-LAoz0VVwiUxgYnW-u)" stroke-linecap="round"><g transform="translate(855.1512049186409 997.2908447538314) rotate(0 -146.03499841359746 -40.22817871667303)"><path d="M-1.16 -0.28 C-49.81 -13.76, -243 -66.29, -291.67 -79.67 M0.42 -1.48 C-48.36 -14.79, -243.86 -68.41, -292.41 -81.38" stroke="#1e1e1e" stroke-width="2" fill="none"></path></g><g transform="translate(855.1512049186409 997.2908447538314) rotate(0 -146.03499841359746 -40.22817871667303)"><path d="M-267.5 -83.48 C-275.86 -82.39, -281.97 -84.25, -292.41 -81.38 M-267.5 -83.48 C-275.73 -82.48, -282.99 -82.58, -292.41 -81.38" stroke="#1e1e1e" stroke-width="2" fill="none"></path></g><g transform="translate(855.1512049186409 997.2908447538314) rotate(0 -146.03499841359746 -40.22817871667303)"><path d="M-271.98 -66.97 C-279.08 -71.08, -283.77 -78.18, -292.41 -81.38 M-271.98 -66.97 C-278.76 -70.81, -284.71 -75.72, -292.41 -81.38" stroke="#1e1e1e" stroke-width="2" fill="none"></path></g></g><mask id="mask-BJS-LAoz0VVwiUxgYnW-u"><rect x="0" y="0" fill="#fff" width="1247.221201745836" height="1177.7472021871774"></rect><rect x="669.9362443468405" y="944.5626660371584" fill="#000" width="78.35992431640625" height="25" opacity="1"></rect></mask><g transform="translate(669.9362443468403 944.5626660371584) rotate(0 39.22080534230915 11.898584495317152)"><text x="39.179962158203125" y="0" font-family="Virgil, Segoe UI Emoji" font-size="20px" fill="#1e1e1e" text-anchor="middle" style="white-space: pre;" direction="ltr" dominant-baseline="text-before-edge">paper id</text></g><g stroke-linecap="round" transform="translate(544.6230825571316 140.98298933018603) rotate(0 61.89184764074889 57.04905615912544)"><path d="M28.52 0 C43.1 1.16, 60.07 1.41, 95.26 0 M28.52 0 C50.35 0.59, 72.08 1.09, 95.26 0 M95.26 0 C113.57 1.92, 123.03 10.51, 123.78 28.52 M95.26 0 C114.6 -0.51, 122.35 11.48, 123.78 28.52 M123.78 28.52 C123.49 47.34, 122.88 65.31, 123.78 85.57 M123.78 28.52 C124.46 41.3, 124.89 53.85, 123.78 85.57 M123.78 85.57 C125.56 102.6, 113.83 114.21, 95.26 114.1 M123.78 85.57 C126.07 104.29, 115.47 113.47, 95.26 114.1 M95.26 114.1 C78.1 115.2, 63.02 114.45, 28.52 114.1 M95.26 114.1 C76.21 113.11, 58.78 114.52, 28.52 114.1 M28.52 114.1 C10.13 115.62, -1.76 105.81, 0 85.57 M28.52 114.1 C11.64 111.87, 2.14 103.68, 0 85.57 M0 85.57 C1.15 66.16, -0.94 44.22, 0 28.52 M0 85.57 C-0.78 65.96, -0.03 44.93, 0 28.52 M0 28.52 C0.21 8.9, 9.52 -1.3, 28.52 0 M0 28.52 C2.17 7.65, 8.89 -1.82, 28.52 0" stroke="#1e1e1e" stroke-width="1" fill="none"></path></g><g transform="translate(594.9249414893844 185.53204548931146) rotate(0 11.589988708496094 12.5)"><text x="11.589988708496094" y="0" font-family="Virgil, Segoe UI Emoji" font-size="20px" fill="#1e1e1e" text-anchor="middle" style="white-space: pre;" direction="ltr" dominant-baseline="text-before-edge">llm</text></g><g stroke-linecap="round" transform="translate(157.24128251409672 246.98869148781193) rotate(0 61.89184764074889 57.04905615912543)"><path d="M28.52 0 C48.54 0.27, 66.92 -0.35, 95.26 0 M28.52 0 C45 -0.37, 62.58 1.08, 95.26 0 M95.26 0 C115.86 -1.49, 122.21 11.25, 123.78 28.52 M95.26 0 C114.16 0.28, 123.75 10.59, 123.78 28.52 M123.78 28.52 C123.88 43.35, 121.81 60.89, 123.78 85.57 M123.78 28.52 C124.27 50.6, 124.21 73.54, 123.78 85.57 M123.78 85.57 C123.56 105.65, 113.36 114.39, 95.26 114.1 M123.78 85.57 C124.69 103.19, 114.5 114.25, 95.26 114.1 M95.26 114.1 C76.25 115.03, 56.82 113.38, 28.52 114.1 M95.26 114.1 C76.62 114.9, 58.52 114.88, 28.52 114.1 M28.52 114.1 C8.31 113.36, -1.03 102.64, 0 85.57 M28.52 114.1 C9.9 112.25, -1.85 103.15, 0 85.57 M0 85.57 C0.98 72.15, 0.43 61.27, 0 28.52 M0 85.57 C-0.39 67.23, 0.09 47.97, 0 28.52 M0 28.52 C-1.82 9.55, 11.22 1.63, 28.52 0 M0 28.52 C-0.9 8.86, 8.53 -1.18, 28.52 0" stroke="#1e1e1e" stroke-width="1" fill="none"></path></g><g transform="translate(196.0131579258417 291.53774764693736) rotate(0 23.119972229003906 12.5)"><text x="23.119972229003906" y="0" font-family="Virgil, Segoe UI Emoji" font-size="20px" fill="#1e1e1e" text-anchor="middle" style="white-space: pre;" direction="ltr" dominant-baseline="text-before-edge">input</text></g><g mask="url(#mask-aegbbXrRqkDIXE0P2hKTz)" stroke-linecap="round"><g transform="translate(283.9923856467177 279.6334231285597) rotate(0 125.03506386807771 -39.67351142541102)"><path d="M-0.79 -0.67 C40.67 -14.09, 207.55 -67.13, 249.21 -80.21 M0.99 1.59 C42.79 -11.72, 209.7 -65.9, 251.47 -79.13" stroke="#1e1e1e" stroke-width="2" fill="none"></path></g><g transform="translate(283.9923856467177 279.6334231285597) rotate(0 125.03506386807771 -39.67351142541102)"><path d="M231.72 -63.81 C237.27 -70.31, 243.65 -75.55, 251.47 -79.13 M231.72 -63.81 C238.74 -69.67, 244.46 -73.03, 251.47 -79.13" stroke="#1e1e1e" stroke-width="2" fill="none"></path></g><g transform="translate(283.9923856467177 279.6334231285597) rotate(0 125.03506386807771 -39.67351142541102)"><path d="M226.49 -80.09 C233.85 -81.03, 242.01 -80.75, 251.47 -79.13 M226.49 -80.09 C235.12 -80.89, 242.47 -79.15, 251.47 -79.13" stroke="#1e1e1e" stroke-width="2" fill="none"></path></g></g><mask id="mask-aegbbXrRqkDIXE0P2hKTz"><rect x="0" y="0" fill="#fff" width="634.0625133828731" height="458.9804459793817"></rect><rect x="344.02751054995167" y="227.4599117031487" fill="#000" width="129.9998779296875" height="25" opacity="1"></rect></mask><g transform="translate(344.02751054995167 227.45991170314863) rotate(0 65.30664445536213 12.859557286035283)"><text x="64.99993896484375" y="0" font-family="Virgil, Segoe UI Emoji" font-size="20px" fill="#1e1e1e" text-anchor="middle" style="white-space: pre;" direction="ltr" dominant-baseline="text-before-edge">ask for topic</text></g><g mask="url(#mask-G1GagAGOTtYaTYdNecxnu)" stroke-linecap="round"><g transform="translate(685.6380889780297 194.0974851110366) rotate(0 87.60010563173637 7.389245610046004)"><path d="M1.14 -0.42 C30.57 1.98, 147.03 11.35, 176.01 14.03 M0.28 -1.68 C29.67 0.88, 146.51 12.59, 175.48 15.17" stroke="#1e1e1e" stroke-width="2" fill="none"></path></g><g transform="translate(685.6380889780297 194.0974851110366) rotate(0 87.60010563173637 7.389245610046004)"><path d="M151.28 21.45 C156.79 20.96, 162.42 17.65, 175.48 15.17 M151.28 21.45 C159.77 18.64, 169.72 16.42, 175.48 15.17" stroke="#1e1e1e" stroke-width="2" fill="none"></path></g><g transform="translate(685.6380889780297 194.0974851110366) rotate(0 87.60010563173637 7.389245610046004)"><path d="M152.91 4.43 C157.95 8.3, 163.16 9.34, 175.48 15.17 M152.91 4.43 C160.9 7.99, 170.24 12.14, 175.48 15.17" stroke="#1e1e1e" stroke-width="2" fill="none"></path></g></g><mask id="mask-G1GagAGOTtYaTYdNecxnu"><rect x="0" y="0" fill="#fff" width="960.8383002415025" height="308.87597633112864"></rect><rect x="747.6382190238286" y="188.98673072108258" fill="#000" width="51.199951171875" height="25" opacity="1"></rect></mask><g transform="translate(747.6382190238286 188.9867307210826) rotate(0 26.145138586778188 11.854784926958388)"><text x="25.5999755859375" y="0" font-family="Virgil, Segoe UI Emoji" font-size="20px" fill="#1e1e1e" text-anchor="middle" style="white-space: pre;" direction="ltr" dominant-baseline="text-before-edge">query</text></g><g stroke-linecap="round" transform="translate(885.2322255707659 155.23740532361327) rotate(0 61.89184764074889 57.04905615912544)"><path d="M28.52 0 C53.44 -0.39, 79.54 1.01, 95.26 0 M28.52 0 C44.09 -0.12, 61.5 -0.6, 95.26 0 M95.26 0 C112.99 -0.94, 125.6 8.28, 123.78 28.52 M95.26 0 C113.1 2.14, 122.82 11.73, 123.78 28.52 M123.78 28.52 C123.79 42.38, 122.39 55.23, 123.78 85.57 M123.78 28.52 C123.64 46.53, 122.77 65.92, 123.78 85.57 M123.78 85.57 C123.08 106.44, 114.94 114.6, 95.26 114.1 M123.78 85.57 C125.92 102.49, 114.74 115.64, 95.26 114.1 M95.26 114.1 C68.45 113.01, 46.17 116.49, 28.52 114.1 M95.26 114.1 C76.08 113.37, 54.78 113.89, 28.52 114.1 M28.52 114.1 C8.13 114.25, -0.34 106.03, 0 85.57 M28.52 114.1 C11.67 115.17, -0.44 105.5, 0 85.57 M0 85.57 C0.69 62.87, 1.13 42.21, 0 28.52 M0 85.57 C0.47 69.37, 1.05 54.22, 0 28.52 M0 28.52 C1.99 10.75, 9.72 0.46, 28.52 0 M0 28.52 C0.75 11.29, 10.25 -0.99, 28.52 0" stroke="#1e1e1e" stroke-width="1" fill="none"></path></g><g transform="translate(894.3041269224523 199.78646148273873) rotate(0 52.8199462890625 12.5)"><text x="52.8199462890625" y="0" font-family="Virgil, Segoe UI Emoji" font-size="20px" fill="#1e1e1e" text-anchor="middle" style="white-space: pre;" direction="ltr" dominant-baseline="text-before-edge">embedder??</text></g><g mask="url(#mask-i1A814mFDaE6MDHOjQqiH)" stroke-linecap="round"><g transform="translate(1032.118400396038 207.7370101809253) rotate(0 195.20603078969492 26.319002953776334)"><path d="M0.04 -0.18 C65.22 8.34, 326.55 43.29, 391.46 52.16 M-1.4 -1.32 C63.68 7.87, 325.51 44.74, 391.06 53.45" stroke="#1e1e1e" stroke-width="2" fill="none"></path></g><g transform="translate(1032.118400396038 207.7370101809253) rotate(0 195.20603078969492 26.319002953776334)"><path d="M366.62 58.72 C374.3 58.72, 381.83 53.66, 391.06 53.45 M366.62 58.72 C375.48 56.39, 383.21 54.11, 391.06 53.45" stroke="#1e1e1e" stroke-width="2" fill="none"></path></g><g transform="translate(1032.118400396038 207.7370101809253) rotate(0 195.20603078969492 26.319002953776334)"><path d="M368.95 41.78 C376.01 47.35, 382.78 47.85, 391.06 53.45 M368.95 41.78 C376.87 45.13, 383.82 48.52, 391.06 53.45" stroke="#1e1e1e" stroke-width="2" fill="none"></path></g></g><mask id="mask-i1A814mFDaE6MDHOjQqiH"><rect x="0" y="0" fill="#fff" width="1522.530461975428" height="360.375016088478"></rect><rect x="1151.1245029020415" y="221.5560131347016" fill="#000" width="152.3998565673828" height="25" opacity="1"></rect></mask><g transform="translate(1151.1245029020413 221.55601313470163) rotate(0 76.01927575244576 12.245601107571275)"><text x="76.1999282836914" y="0" font-family="Virgil, Segoe UI Emoji" font-size="20px" fill="#1e1e1e" text-anchor="middle" style="white-space: pre;" direction="ltr" dominant-baseline="text-before-edge">query embedding</text></g><g stroke-linecap="round" transform="translate(909.4869259645377 530.5336776526476) rotate(0 287.335509955062 121.35289924254391)"><path d="M32 0 C193.06 1.11, 352.77 0.99, 542.67 0 M32 0 C225.33 -0.68, 418.66 -1.19, 542.67 0 M542.67 0 C562.91 1.58, 572.77 10.78, 574.67 32 M542.67 0 C564.92 -1.1, 572.89 8.99, 574.67 32 M574.67 32 C571.3 88.78, 573.29 146.54, 574.67 210.71 M574.67 32 C573.9 83.18, 572.8 134, 574.67 210.71 M574.67 210.71 C572.68 233.11, 564.01 241.68, 542.67 242.71 M574.67 210.71 C574.3 232.53, 564.2 243.83, 542.67 242.71 M542.67 242.71 C368.18 240.87, 192.77 240.52, 32 242.71 M542.67 242.71 C382.89 243.38, 223.31 243.42, 32 242.71 M32 242.71 C9.3 241.6, -0.29 232.4, 0 210.71 M32 242.71 C11.97 240.88, -1.7 232.19, 0 210.71 M0 210.71 C1.66 154.08, -0.23 99.26, 0 32 M0 210.71 C1.21 154.3, 0.5 97.35, 0 32 M0 32 C0.16 9.6, 11.2 1.04, 32 0 M0 32 C-0.79 9.16, 10.02 0.79, 32 0" stroke="#1e1e1e" stroke-width="2" fill="none"></path></g><g transform="translate(1067.305842733632 561.9200796443796) rotate(0 126.0899429321289 22.5)"><text x="0" y="0" font-family="Virgil, Segoe UI Emoji" font-size="36px" fill="#1e1e1e" text-anchor="start" style="white-space: pre;" direction="ltr" dominant-baseline="text-before-edge">Paper Results</text></g><g transform="translate(953.2566731725549 638.1805878953026) rotate(0 230.6197967529297 25)"><text x="0" y="0" font-family="Virgil, Segoe UI Emoji" font-size="20px" fill="#1e1e1e" text-anchor="start" style="white-space: pre;" direction="ltr" dominant-baseline="text-before-edge">this will give the top 10 results based on the </text><text x="0" y="25" font-family="Virgil, Segoe UI Emoji" font-size="20px" fill="#1e1e1e" text-anchor="start" style="white-space: pre;" direction="ltr" dominant-baseline="text-before-edge">abstract embedding</text></g><g stroke-linecap="round"><g transform="translate(1659.7562595928455 388.62431676725964) rotate(0 -138.11828798341207 60.838451908217735)"><path d="M0.57 0.05 C-45.4 20.18, -230.52 100.42, -276.66 120.63 M-0.59 -0.97 C-46.68 19.29, -231.75 101.05, -277.83 121.62" stroke="#1e1e1e" stroke-width="2" fill="none"></path></g><g transform="translate(1659.7562595928455 388.62431676725964) rotate(0 -138.11828798341207 60.838451908217735)"><path d="M-259.82 104.28 C-263.94 107.68, -269.94 112.36, -277.83 121.62 M-259.82 104.28 C-264.36 108.91, -270.39 113.13, -277.83 121.62" stroke="#1e1e1e" stroke-width="2" fill="none"></path></g><g transform="translate(1659.7562595928455 388.62431676725964) rotate(0 -138.11828798341207 60.838451908217735)"><path d="M-252.89 119.91 C-258.59 119.72, -266.2 120.77, -277.83 121.62 M-252.89 119.91 C-259.37 120.26, -267.29 120.22, -277.83 121.62" stroke="#1e1e1e" stroke-width="2" fill="none"></path></g></g><mask></mask><g stroke-linecap="round"><g transform="translate(915.1658759931505 511.97460334224843) rotate(0 -135.7531640617358 -120.54314763013247)"><path d="M0.82 0.38 C-44.46 -39.86, -225.52 -201.75, -270.92 -241.8 M-0.2 -0.46 C-45.67 -40.54, -226.19 -200.44, -271.56 -240.64" stroke="#1e1e1e" stroke-width="2" fill="none"></path></g><g transform="translate(915.1658759931505 511.97460334224843) rotate(0 -135.7531640617358 -120.54314763013247)"><path d="M-248.31 -231.46 C-256.17 -233.69, -266.54 -238.19, -271.56 -240.64 M-248.31 -231.46 C-256.57 -235.07, -267.03 -239.59, -271.56 -240.64" stroke="#1e1e1e" stroke-width="2" fill="none"></path></g><g transform="translate(915.1658759931505 511.97460334224843) rotate(0 -135.7531640617358 -120.54314763013247)"><path d="M-259.65 -218.66 C-263.32 -225.67, -269.52 -234.86, -271.56 -240.64 M-259.65 -218.66 C-263.44 -227.32, -269.42 -236.91, -271.56 -240.64" stroke="#1e1e1e" stroke-width="2" fill="none"></path></g></g><mask></mask><g stroke-linecap="round"><g transform="translate(619.7431940451936 268.2957825054104) rotate(0 139.29274024559098 334.2623383736625)"><path d="M0.44 0.93 C47.17 112.22, 233.19 557.27, 279.65 668.5 M-0.79 0.37 C45.94 111.8, 232.67 558.5, 279.26 670.03" stroke="#1e1e1e" stroke-width="2" fill="none"></path></g><g transform="translate(619.7431940451936 268.2957825054104) rotate(0 139.29274024559098 334.2623383736625)"><path d="M262.32 651.65 C268.03 657.75, 270.49 661.37, 279.26 670.03 M262.32 651.65 C266.15 656.61, 271.82 661.42, 279.26 670.03" stroke="#1e1e1e" stroke-width="2" fill="none"></path></g><g transform="translate(619.7431940451936 268.2957825054104) rotate(0 139.29274024559098 334.2623383736625)"><path d="M278.09 645.06 C280.08 652.79, 278.78 657.98, 279.26 670.03 M278.09 645.06 C277.42 651.89, 278.61 658.57, 279.26 670.03" stroke="#1e1e1e" stroke-width="2" fill="none"></path></g></g><mask></mask><g stroke-linecap="round"><g transform="translate(301.1972464347632 723.4092388149505) rotate(0 -16.27748662446467 -94.68269735854221)"><path d="M0 1.13 C-5.45 -30.45, -27.39 -158.23, -32.88 -189.78 M-1.46 0.68 C-7.08 -30.71, -28.59 -156.69, -34 -188.46" stroke="#1e1e1e" stroke-width="2" fill="none"></path></g><g transform="translate(301.1972464347632 723.4092388149505) rotate(0 -16.27748662446467 -94.68269735854221)"><path d="M-21.62 -166.74 C-23.22 -173.48, -29.32 -179.77, -34 -188.46 M-21.62 -166.74 C-26.54 -174.81, -31.95 -184.29, -34 -188.46" stroke="#1e1e1e" stroke-width="2" fill="none"></path></g><g transform="translate(301.1972464347632 723.4092388149505) rotate(0 -16.27748662446467 -94.68269735854221)"><path d="M-38.47 -163.86 C-35.26 -171.42, -36.55 -178.53, -34 -188.46 M-38.47 -163.86 C-36.68 -173.06, -35.36 -183.68, -34 -188.46" stroke="#1e1e1e" stroke-width="2" fill="none"></path></g></g><mask></mask><g stroke-linecap="round" transform="translate(155.2694411964386 403.25930434749785) rotate(0 61.89184764074889 57.04905615912543)"><path d="M28.52 0 C45.58 1.51, 64.94 -0.24, 95.26 0 M28.52 0 C44.58 0.12, 63.01 0.81, 95.26 0 M95.26 0 C114.54 -1.75, 122.46 9.41, 123.78 28.52 M95.26 0 C116.31 -2.01, 124.78 11.19, 123.78 28.52 M123.78 28.52 C124.8 41.36, 125.48 54.68, 123.78 85.57 M123.78 28.52 C123.38 51.61, 124.01 72.74, 123.78 85.57 M123.78 85.57 C122.5 104.44, 113.03 112.38, 95.26 114.1 M123.78 85.57 C123.16 103.13, 113.02 113.63, 95.26 114.1 M95.26 114.1 C70.88 114.51, 50.15 113.4, 28.52 114.1 M95.26 114.1 C74.33 114.29, 53.29 113.4, 28.52 114.1 M28.52 114.1 C8.83 114.56, 0.72 106.35, 0 85.57 M28.52 114.1 C11.33 113.97, -0.42 104.19, 0 85.57 M0 85.57 C0.15 70.66, -1.11 59.57, 0 28.52 M0 85.57 C0.82 66.35, -0.43 48.46, 0 28.52 M0 28.52 C1.8 9.62, 7.81 -0.89, 28.52 0 M0 28.52 C-1.29 8.7, 9.12 -2.18, 28.52 0" stroke="#1e1e1e" stroke-width="1" fill="none"></path></g><g transform="translate(184.0313297307422 447.8083605066233) rotate(0 33.12995910644531 12.5)"><text x="33.12995910644531" y="0" font-family="Virgil, Segoe UI Emoji" font-size="20px" fill="#1e1e1e" text-anchor="middle" style="white-space: pre;" direction="ltr" dominant-baseline="text-before-edge">output</text></g></svg>